<svg version="1.1" id="Layer_1" xmlns="http://www.w3.org/2000/svg" xmlns:xlink="http://www.w3.org/1999/xlink" x="0px" y="0px"
	 width="100%" viewBox="0 0 1716 308" enable-background="new 0 0 1716 308" xml:space="preserve">
<path fill="#181B1E" opacity="1.000000" stroke="none" 
	d="
M1178.000000,309.000000 
	C785.381714,309.000000 393.263489,309.000000 1.072614,309.000000 
	C1.072614,206.394455 1.072614,103.788857 1.072614,1.091624 
	C573.000000,1.091624 1145.000000,1.091624 1716.966553,1.091624 
	C1716.966553,103.736580 1716.966553,206.368301 1716.966553,309.000000 
	C1537.455444,309.000000 1357.977661,309.000000 1178.000000,309.000000 
M1346.131836,135.536743 
	C1351.693726,116.745766 1351.813477,97.800781 1347.002930,78.920074 
	C1340.845947,54.754898 1326.448242,37.319923 1303.452026,27.165672 
	C1287.578735,20.156687 1270.768066,18.603977 1253.744141,18.523924 
	C1224.249023,18.385229 1194.752808,18.485336 1165.257080,18.485285 
	C1163.621094,18.485283 1161.984985,18.485285 1160.213379,18.485285 
	C1160.213379,107.816704 1160.213379,196.665771 1160.213379,285.586609 
	C1178.028564,285.586609 1195.455322,285.586609 1213.545898,285.586609 
	C1213.545898,213.637833 1213.545898,141.937027 1213.545898,70.169907 
	C1230.505493,70.169907 1246.822876,69.660645 1263.086914,70.371498 
	C1272.048340,70.763184 1280.381470,74.056961 1287.249756,80.684822 
	C1297.627808,90.699821 1298.040649,116.730499 1288.599121,127.988274 
	C1280.670898,137.441956 1270.002686,140.328644 1258.578735,141.371460 
	C1252.382202,141.937103 1246.091431,141.472275 1239.502563,141.472275 
	C1239.502563,159.294250 1239.462280,175.935608 1239.578247,192.575867 
	C1239.587646,193.927002 1240.460693,195.413101 1241.279175,196.596954 
	C1261.135498,225.319168 1280.995239,254.039719 1301.047729,282.624847 
	C1302.210938,284.282837 1304.998291,285.675476 1307.048340,285.700867 
	C1325.875977,285.934326 1344.707886,285.845978 1363.538452,285.819397 
	C1364.727173,285.817719 1365.915771,285.548584 1367.736572,285.326904 
	C1344.051392,251.590607 1320.818970,218.499146 1297.294678,184.992065 
	C1321.322144,175.895737 1338.036255,160.432983 1346.131836,135.536743 
M390.997406,264.499817 
	C390.997406,271.449982 390.997406,278.400177 390.997406,285.389008 
	C409.203308,285.389008 426.891937,285.389008 444.594299,285.389008 
	C444.594299,196.338455 444.594299,107.735580 444.594299,18.862656 
	C426.648773,18.862656 408.946655,18.862656 390.788086,18.862656 
	C390.788086,56.982033 390.788086,94.729027 390.788086,132.426956 
	C356.288452,132.426956 322.248260,132.426956 287.749878,132.426956 
	C287.749878,94.295410 287.749878,56.563320 287.749878,18.798008 
	C269.692535,18.798008 252.098663,18.798008 234.483398,18.798008 
	C234.483398,107.845184 234.483398,196.582245 234.483398,285.577515 
	C252.373459,285.577515 269.943726,285.577515 288.059143,285.577515 
	C288.059143,251.602280 288.059143,217.878281 288.059143,184.201706 
	C322.652527,184.201706 356.699524,184.201706 390.670868,184.201706 
	C390.822144,184.880447 390.953674,185.195679 390.953918,185.511002 
	C390.974945,211.507309 390.985809,237.503632 390.997406,264.499817 
M627.148743,210.533371 
	C625.619568,212.497955 624.224365,214.586411 622.540222,216.407791 
	C607.096375,233.110489 585.328064,238.062408 563.789856,229.842026 
	C545.076416,222.699738 532.006165,202.642166 532.004700,181.042267 
	C532.001282,128.880142 532.003479,76.718018 532.003479,24.555899 
	C532.003479,22.643358 532.003479,20.730818 532.003479,18.796860 
	C513.691467,18.796860 496.097076,18.796860 478.375763,18.796860 
	C478.291840,20.076582 478.171417,21.056555 478.171234,22.036545 
	C478.162079,75.365227 477.841949,128.696533 478.277588,182.021667 
	C478.561005,216.712402 492.783936,244.996063 520.445618,266.179626 
	C555.592102,293.095123 605.232605,294.860687 641.815369,270.071503 
	C674.128540,248.175430 689.485596,217.099060 689.506714,178.264557 
	C689.534607,126.935715 689.513550,75.606842 689.513550,24.277983 
	C689.513550,22.505890 689.513550,20.733797 689.513550,18.821640 
	C671.288025,18.821640 653.726013,18.821640 635.826904,18.821640 
	C635.826904,21.139009 635.826904,23.122890 635.826904,25.106771 
	C635.826904,75.602371 635.762695,126.098114 635.874268,176.593460 
	C635.900574,188.476059 633.963501,199.721832 627.148743,210.533371 
M1101.261841,250.747665 
	C1117.909180,230.930023 1126.668091,208.055099 1126.773071,182.202820 
	C1126.988281,129.211624 1126.840088,76.218956 1126.823975,23.226904 
	C1126.823486,21.799559 1126.620850,20.372274 1126.499023,18.767397 
	C1108.531128,18.767397 1090.939575,18.767397 1072.996582,18.767397 
	C1072.996582,20.856756 1072.996582,22.667028 1072.996582,24.477301 
	C1072.996582,60.471909 1072.996704,96.466515 1072.996460,132.461121 
	C1072.996460,149.291931 1073.343018,166.131760 1072.906494,182.951248 
	C1072.373535,203.486984 1062.518188,219.021591 1044.397827,228.150772 
	C1025.632324,237.604996 1006.931335,235.755844 989.912903,223.114136 
	C975.201538,212.186279 969.147278,196.928452 969.160217,178.902817 
	C969.197021,127.577202 969.173035,76.251541 969.173035,24.925894 
	C969.173035,22.959587 969.173096,20.993280 969.173096,18.801958 
	C951.133789,18.801958 933.567017,18.801958 915.757080,18.801958 
	C915.654236,20.394234 915.497742,21.689915 915.497437,22.985632 
	C915.485229,75.477768 915.426697,127.970009 915.518127,180.461975 
	C915.552979,200.478622 920.544617,219.094574 930.870300,236.471863 
	C951.792175,271.681641 993.578491,292.163330 1034.195435,286.690369 
	C1060.809692,283.104156 1082.924683,271.241821 1101.261841,250.747665 
M156.893173,118.109192 
	C152.180847,133.267975 140.262390,138.882065 126.000549,140.904968 
	C118.852684,141.918823 111.567490,141.964447 104.456207,142.440491 
	C104.456207,159.416931 104.456207,176.007996 104.456207,192.937653 
	C125.479248,193.304153 145.901627,192.160858 165.340759,183.752274 
	C186.050781,174.793930 200.773575,160.291748 208.167435,138.738876 
	C215.124756,118.458488 215.309204,97.844048 209.803833,77.383850 
	C203.342239,53.370098 188.550262,36.244961 165.282257,26.543276 
	C149.415588,19.927605 132.805832,18.609921 115.984222,18.526392 
	C87.328079,18.384098 58.670712,18.487171 30.013857,18.487158 
	C28.220045,18.487158 26.426233,18.487158 24.582924,18.487158 
	C24.582924,107.852287 24.582924,196.686447 24.582924,285.489746 
	C42.577652,285.489746 60.150024,285.489746 78.231827,285.489746 
	C78.231827,213.431122 78.231827,141.718597 78.231827,70.060059 
	C94.400917,70.060059 110.092102,69.399109 125.698837,70.263275 
	C138.853394,70.991669 150.535522,75.891075 155.866486,89.419418 
	C159.427795,98.456871 159.592789,107.881004 156.893173,118.109192 
M1460.509521,18.697289 
	C1455.809692,18.697289 1451.109863,18.697289 1445.483887,18.697289 
	C1446.829346,21.061577 1447.395264,22.220457 1448.106323,23.282061 
	C1475.711304,64.491615 1503.262939,105.737274 1531.048218,146.824966 
	C1533.853027,150.972656 1533.756958,153.676239 1530.953003,157.766769 
	C1502.812500,198.819580 1474.902100,240.030060 1446.945557,281.208862 
	C1446.158081,282.368866 1445.579834,283.670868 1444.515747,285.616364 
	C1447.251465,285.764069 1449.176758,285.955505 1451.102173,285.958252 
	C1467.932861,285.982147 1484.765381,285.844696 1501.593140,286.063049 
	C1505.759033,286.117035 1508.268677,284.681458 1510.581909,281.291443 
	C1531.222778,251.041214 1552.021973,220.898941 1572.767090,190.719711 
	C1611.240723,134.750015 1649.711060,78.777977 1688.167358,22.796280 
	C1688.854126,21.796520 1689.344849,20.662134 1690.003784,19.449631 
	C1689.029053,19.106480 1688.575806,18.808264 1688.121826,18.807060 
	C1669.459351,18.757536 1650.795654,18.632345 1632.136597,18.871176 
	C1630.325562,18.894356 1627.983154,20.806068 1626.832764,22.487865 
	C1611.044434,45.569569 1595.430298,68.770363 1579.753296,91.928398 
	C1576.342773,96.966530 1572.854004,101.951698 1569.052612,107.467117 
	C1567.420044,105.225967 1566.221313,103.672699 1565.119141,102.053795 
	C1547.132446,75.633316 1529.106934,49.238953 1511.251099,22.730274 
	C1509.229126,19.728325 1507.049194,18.588989 1503.499390,18.630749 
	C1489.503540,18.795408 1475.504517,18.697660 1460.509521,18.697289 
M828.839417,280.282104 
	C828.839417,210.223877 828.839417,140.165649 828.839417,69.737686 
	C853.665894,69.737686 877.765991,69.737686 902.097351,69.737686 
	C902.097351,52.505833 902.097351,35.648598 902.097351,18.805735 
	C835.447693,18.805735 769.217407,18.805735 702.747986,18.805735 
	C702.747986,35.871971 702.747986,52.616051 702.747986,69.901871 
	C726.883911,69.901871 750.762756,69.901871 775.169922,69.901871 
	C775.169922,142.135834 775.169922,213.829620 775.169922,285.480621 
	C793.272644,285.480621 810.835938,285.480621 828.594604,285.480621 
	C828.689392,283.832794 828.764343,282.529999 828.839417,280.282104 
M1427.536865,21.032303 
	C1413.906372,25.369377 1400.319946,29.854074 1386.617554,33.950779 
	C1382.666626,35.132027 1381.214600,36.750084 1381.223145,41.102734 
	C1381.378296,120.917786 1381.336548,200.733231 1381.336548,280.548584 
	C1381.336548,282.165192 1381.336548,283.781799 1381.336548,285.533295 
	C1399.416992,285.533295 1416.996216,285.533295 1434.815674,285.533295 
	C1434.815674,196.588913 1434.815674,107.901054 1434.815674,18.749601 
	C1432.389282,19.529411 1430.355103,20.183172 1427.536865,21.032303 
M1596.541870,219.932129 
	C1592.830444,219.932129 1589.119019,219.932129 1584.619141,219.932129 
	C1599.596436,241.786530 1613.920166,262.780640 1628.437622,283.639893 
	C1629.317993,284.904846 1631.731323,285.675903 1633.443848,285.697723 
	C1646.590088,285.865021 1659.739624,285.789825 1672.888062,285.789886 
	C1679.621460,285.789917 1686.354858,285.789886 1693.381104,285.789886 
	C1693.021484,284.756836 1692.955078,284.252075 1692.699219,283.876251 
	C1678.756104,263.392029 1664.846191,242.884521 1650.732544,222.518204 
	C1649.759033,221.113281 1647.262695,220.064133 1645.460205,220.042679 
	C1629.484619,219.852646 1613.505737,219.932175 1596.541870,219.932129 
z"/>
<path fill="#F4D357" opacity="1.000000" stroke="none" 
	d="
M1346.027832,135.924606 
	C1338.036255,160.432983 1321.322144,175.895737 1297.294678,184.992065 
	C1320.818970,218.499146 1344.051392,251.590607 1367.736572,285.326904 
	C1365.915771,285.548584 1364.727173,285.817719 1363.538452,285.819397 
	C1344.707886,285.845978 1325.875977,285.934326 1307.048340,285.700867 
	C1304.998291,285.675476 1302.210938,284.282837 1301.047729,282.624847 
	C1280.995239,254.039719 1261.135498,225.319168 1241.279175,196.596954 
	C1240.460693,195.413101 1239.587646,193.927002 1239.578247,192.575867 
	C1239.462280,175.935608 1239.502563,159.294250 1239.502563,141.472275 
	C1246.091431,141.472275 1252.382202,141.937103 1258.578735,141.371460 
	C1270.002686,140.328644 1280.670898,137.441956 1288.599121,127.988274 
	C1298.040649,116.730499 1297.627808,90.699821 1287.249756,80.684822 
	C1280.381470,74.056961 1272.048340,70.763184 1263.086914,70.371498 
	C1246.822876,69.660645 1230.505493,70.169907 1213.545898,70.169907 
	C1213.545898,141.937027 1213.545898,213.637833 1213.545898,285.586609 
	C1195.455322,285.586609 1178.028564,285.586609 1160.213379,285.586609 
	C1160.213379,196.665771 1160.213379,107.816704 1160.213379,18.485285 
	C1161.984985,18.485285 1163.621094,18.485283 1165.257080,18.485285 
	C1194.752808,18.485336 1224.249023,18.385229 1253.744141,18.523924 
	C1270.768066,18.603977 1287.578735,20.156687 1303.452026,27.165672 
	C1326.448242,37.319923 1340.845947,54.754898 1347.002930,78.920074 
	C1351.813477,97.800781 1351.693726,116.745766 1346.027832,135.924606 
z"/>
<path fill="#F4D458" opacity="1.000000" stroke="none" 
	d="
M390.997375,263.999878 
	C390.985809,237.503632 390.974945,211.507309 390.953918,185.511002 
	C390.953674,185.195679 390.822144,184.880447 390.670868,184.201706 
	C356.699524,184.201706 322.652527,184.201706 288.059143,184.201706 
	C288.059143,217.878281 288.059143,251.602280 288.059143,285.577515 
	C269.943726,285.577515 252.373459,285.577515 234.483398,285.577515 
	C234.483398,196.582245 234.483398,107.845184 234.483398,18.798008 
	C252.098663,18.798008 269.692535,18.798008 287.749878,18.798008 
	C287.749878,56.563320 287.749878,94.295410 287.749878,132.426956 
	C322.248260,132.426956 356.288452,132.426956 390.788086,132.426956 
	C390.788086,94.729027 390.788086,56.982033 390.788086,18.862656 
	C408.946655,18.862656 426.648773,18.862656 444.594299,18.862656 
	C444.594299,107.735580 444.594299,196.338455 444.594299,285.389008 
	C426.891937,285.389008 409.203308,285.389008 390.997406,285.389008 
	C390.997406,278.400177 390.997406,271.449982 390.997375,263.999878 
z"/>
<path fill="#F4D357" opacity="1.000000" stroke="none" 
	d="
M627.345459,210.227341 
	C633.963501,199.721832 635.900574,188.476059 635.874268,176.593460 
	C635.762695,126.098114 635.826904,75.602371 635.826904,25.106771 
	C635.826904,23.122890 635.826904,21.139009 635.826904,18.821640 
	C653.726013,18.821640 671.288025,18.821640 689.513550,18.821640 
	C689.513550,20.733797 689.513550,22.505890 689.513550,24.277983 
	C689.513550,75.606842 689.534607,126.935715 689.506714,178.264557 
	C689.485596,217.099060 674.128540,248.175430 641.815369,270.071503 
	C605.232605,294.860687 555.592102,293.095123 520.445618,266.179626 
	C492.783936,244.996063 478.561005,216.712402 478.277588,182.021667 
	C477.841949,128.696533 478.162079,75.365227 478.171234,22.036545 
	C478.171417,21.056555 478.291840,20.076582 478.375763,18.796860 
	C496.097076,18.796860 513.691467,18.796860 532.003479,18.796860 
	C532.003479,20.730818 532.003479,22.643358 532.003479,24.555899 
	C532.003479,76.718018 532.001282,128.880142 532.004700,181.042267 
	C532.006165,202.642166 545.076416,222.699738 563.789856,229.842026 
	C585.328064,238.062408 607.096375,233.110489 622.540222,216.407791 
	C624.224365,214.586411 625.619568,212.497955 627.345459,210.227341 
z"/>
<path fill="#F4D357" opacity="1.000000" stroke="none" 
	d="
M1101.010254,250.999435 
	C1082.924683,271.241821 1060.809692,283.104156 1034.195435,286.690369 
	C993.578491,292.163330 951.792175,271.681641 930.870300,236.471863 
	C920.544617,219.094574 915.552979,200.478622 915.518127,180.461975 
	C915.426697,127.970009 915.485229,75.477768 915.497437,22.985632 
	C915.497742,21.689915 915.654236,20.394234 915.757080,18.801958 
	C933.567017,18.801958 951.133789,18.801958 969.173096,18.801958 
	C969.173096,20.993280 969.173035,22.959587 969.173035,24.925894 
	C969.173035,76.251541 969.197021,127.577202 969.160217,178.902817 
	C969.147278,196.928452 975.201538,212.186279 989.912903,223.114136 
	C1006.931335,235.755844 1025.632324,237.604996 1044.397827,228.150772 
	C1062.518188,219.021591 1072.373535,203.486984 1072.906494,182.951248 
	C1073.343018,166.131760 1072.996460,149.291931 1072.996460,132.461121 
	C1072.996704,96.466515 1072.996582,60.471909 1072.996582,24.477301 
	C1072.996582,22.667028 1072.996582,20.856756 1072.996582,18.767397 
	C1090.939575,18.767397 1108.531128,18.767397 1126.499023,18.767397 
	C1126.620850,20.372274 1126.823486,21.799559 1126.823975,23.226904 
	C1126.840088,76.218956 1126.988281,129.211624 1126.773071,182.202820 
	C1126.668091,208.055099 1117.909180,230.930023 1101.010254,250.999435 
z"/>
<path fill="#F4D358" opacity="1.000000" stroke="none" 
	d="
M156.963394,117.703674 
	C159.592789,107.881004 159.427795,98.456871 155.866486,89.419418 
	C150.535522,75.891075 138.853394,70.991669 125.698837,70.263275 
	C110.092102,69.399109 94.400917,70.060059 78.231827,70.060059 
	C78.231827,141.718597 78.231827,213.431122 78.231827,285.489746 
	C60.150024,285.489746 42.577652,285.489746 24.582924,285.489746 
	C24.582924,196.686447 24.582924,107.852287 24.582924,18.487158 
	C26.426233,18.487158 28.220045,18.487158 30.013857,18.487158 
	C58.670712,18.487171 87.328079,18.384098 115.984222,18.526392 
	C132.805832,18.609921 149.415588,19.927605 165.282257,26.543276 
	C188.550262,36.244961 203.342239,53.370098 209.803833,77.383850 
	C215.309204,97.844048 215.124756,118.458488 208.167435,138.738876 
	C200.773575,160.291748 186.050781,174.793930 165.340759,183.752274 
	C145.901627,192.160858 125.479248,193.304153 104.456207,192.937653 
	C104.456207,176.007996 104.456207,159.416931 104.456207,142.440491 
	C111.567490,141.964447 118.852684,141.918823 126.000549,140.904968 
	C140.262390,138.882065 152.180847,133.267975 156.963394,117.703674 
z"/>
<path fill="#F5D458" opacity="1.000000" stroke="none" 
	d="
M1461.008057,18.697285 
	C1475.504517,18.697660 1489.503540,18.795408 1503.499390,18.630749 
	C1507.049194,18.588989 1509.229126,19.728325 1511.251099,22.730274 
	C1529.106934,49.238953 1547.132446,75.633316 1565.119141,102.053795 
	C1566.221313,103.672699 1567.420044,105.225967 1569.052612,107.467117 
	C1572.854004,101.951698 1576.342773,96.966530 1579.753296,91.928398 
	C1595.430298,68.770363 1611.044434,45.569569 1626.832764,22.487865 
	C1627.983154,20.806068 1630.325562,18.894356 1632.136597,18.871176 
	C1650.795654,18.632345 1669.459351,18.757536 1688.121826,18.807060 
	C1688.575806,18.808264 1689.029053,19.106480 1690.003784,19.449631 
	C1689.344849,20.662134 1688.854126,21.796520 1688.167358,22.796280 
	C1649.711060,78.777977 1611.240723,134.750015 1572.767090,190.719711 
	C1552.021973,220.898941 1531.222778,251.041214 1510.581909,281.291443 
	C1508.268677,284.681458 1505.759033,286.117035 1501.593140,286.063049 
	C1484.765381,285.844696 1467.932861,285.982147 1451.102173,285.958252 
	C1449.176758,285.955505 1447.251465,285.764069 1444.515747,285.616364 
	C1445.579834,283.670868 1446.158081,282.368866 1446.945557,281.208862 
	C1474.902100,240.030060 1502.812500,198.819580 1530.953003,157.766769 
	C1533.756958,153.676239 1533.853027,150.972656 1531.048218,146.824966 
	C1503.262939,105.737274 1475.711304,64.491615 1448.106323,23.282061 
	C1447.395264,22.220457 1446.829346,21.061577 1445.483887,18.697289 
	C1451.109863,18.697289 1455.809692,18.697289 1461.008057,18.697285 
z"/>
<path fill="#F3D357" opacity="1.000000" stroke="none" 
	d="
M828.839355,280.754639 
	C828.764343,282.529999 828.689392,283.832794 828.594604,285.480621 
	C810.835938,285.480621 793.272644,285.480621 775.169922,285.480621 
	C775.169922,213.829620 775.169922,142.135834 775.169922,69.901871 
	C750.762756,69.901871 726.883911,69.901871 702.747986,69.901871 
	C702.747986,52.616051 702.747986,35.871971 702.747986,18.805735 
	C769.217407,18.805735 835.447693,18.805735 902.097351,18.805735 
	C902.097351,35.648598 902.097351,52.505833 902.097351,69.737686 
	C877.765991,69.737686 853.665894,69.737686 828.839417,69.737686 
	C828.839417,140.165649 828.839417,210.223877 828.839355,280.754639 
z"/>
<path fill="#F4D357" opacity="1.000000" stroke="none" 
	d="
M1427.928955,20.934616 
	C1430.355103,20.183172 1432.389282,19.529411 1434.815674,18.749601 
	C1434.815674,107.901054 1434.815674,196.588913 1434.815674,285.533295 
	C1416.996216,285.533295 1399.416992,285.533295 1381.336548,285.533295 
	C1381.336548,283.781799 1381.336548,282.165192 1381.336548,280.548584 
	C1381.336548,200.733231 1381.378296,120.917786 1381.223145,41.102734 
	C1381.214600,36.750084 1382.666626,35.132027 1386.617554,33.950779 
	C1400.319946,29.854074 1413.906372,25.369377 1427.928955,20.934616 
z"/>
<path fill="#F4D357" opacity="1.000000" stroke="none" 
	d="
M1597.034912,219.932129 
	C1613.505737,219.932175 1629.484619,219.852646 1645.460205,220.042679 
	C1647.262695,220.064133 1649.759033,221.113281 1650.732544,222.518204 
	C1664.846191,242.884521 1678.756104,263.392029 1692.699219,283.876251 
	C1692.955078,284.252075 1693.021484,284.756836 1693.381104,285.789886 
	C1686.354858,285.789886 1679.621460,285.789917 1672.888062,285.789886 
	C1659.739624,285.789825 1646.590088,285.865021 1633.443848,285.697723 
	C1631.731323,285.675903 1629.317993,284.904846 1628.437622,283.639893 
	C1613.920166,262.780640 1599.596436,241.786530 1584.619141,219.932129 
	C1589.119019,219.932129 1592.830444,219.932129 1597.034912,219.932129 
z"/>
</svg>